<?xml version="1.0" standalone="no"?>
<!DOCTYPE svg PUBLIC "-//W3C//DTD SVG 20010904//EN"
 "http://www.w3.org/TR/2001/REC-SVG-20010904/DTD/svg10.dtd">
<svg version="1.0" xmlns="http://www.w3.org/2000/svg"
 width="980.000000pt" height="980.000000pt" viewBox="0 0 980.000000 980.000000"
 preserveAspectRatio="xMidYMid meet">
<metadata>
Created by potrace 1.16, written by Peter Selinger 2001-2019
</metadata>
<g transform="translate(0.000000,980.000000) scale(0.100000,-0.100000)"
fill="#000000" stroke="none">
<path d="M4730 9772 l0 -29 -122 -6 c-168 -9 -408 -41 -618 -83 -804 -160
-1538 -511 -2180 -1043 -150 -123 -501 -475 -622 -621 -534 -647 -880 -1372
-1042 -2180 -42 -208 -74 -448 -83 -617 l-6 -123 -29 0 -28 0 0 -170 0 -170
28 0 29 0 6 -123 c19 -366 114 -841 247 -1231 201 -589 493 -1105 904 -1596
98 -117 370 -393 496 -504 666 -585 1457 -973 2325 -1140 174 -33 415 -64 569
-72 l126 -7 0 -29 0 -28 170 0 170 0 0 28 0 29 126 7 c600 32 1286 221 1859
511 829 420 1522 1065 2001 1861 389 648 642 1456 680 2172 l7 122 29 0 28 0
0 170 0 170 -28 0 -29 0 -7 126 c-9 172 -40 405 -82 614 -169 848 -553 1624
-1130 2280 -112 128 -386 398 -509 501 -636 535 -1385 898 -2195 1063 -207 42
-555 86 -685 86 l-65 0 0 30 0 30 -170 0 -170 0 0 -28z m750 -721 c419 -58
800 -166 1170 -333 956 -432 1711 -1209 2118 -2183 138 -328 231 -678 283
-1059 30 -219 38 -760 14 -1006 -50 -536 -180 -987 -422 -1470 -112 -224 -214
-394 -352 -582 -605 -833 -1511 -1416 -2511 -1618 -325 -65 -434 -75 -875 -75
-444 0 -513 6 -854 71 -366 70 -701 184 -1046 356 -1135 566 -1951 1627 -2205
2866 -65 319 -75 435 -75 882 0 447 10 563 76 885 165 804 575 1552 1166 2125
649 631 1475 1029 2361 1140 224 28 220 28 627 25 311 -3 395 -6 525 -24z"/>
<path d="M3886 7233 c-4 -4 -30 -10 -59 -14 -135 -20 -369 -79 -427 -109 -9
-4 -31 -11 -50 -15 -19 -4 -41 -11 -50 -16 -8 -5 -44 -20 -80 -35 -83 -33
-375 -179 -390 -194 -3 -3 -48 -32 -100 -65 -52 -32 -97 -61 -100 -65 -3 -3
-22 -16 -43 -30 -31 -21 -49 -50 -108 -170 -87 -177 -98 -202 -166 -370 -8
-19 -18 -44 -23 -55 -19 -43 -42 -103 -67 -175 -14 -41 -29 -79 -33 -85 -4 -5
-11 -26 -15 -45 -4 -19 -11 -41 -15 -50 -11 -21 -34 -89 -65 -195 -15 -49 -30
-99 -35 -110 -5 -11 -12 -36 -16 -55 -3 -19 -10 -41 -15 -50 -4 -8 -13 -35
-19 -60 -45 -174 -79 -315 -96 -392 -8 -38 -21 -101 -30 -140 -8 -40 -21 -111
-29 -158 -8 -47 -17 -94 -20 -105 -7 -27 -33 -218 -52 -395 -8 -80 -17 -245
-20 -367 l-4 -222 42 -58 c46 -63 234 -254 287 -294 19 -13 39 -29 45 -34 27
-24 178 -125 187 -125 6 0 10 -4 10 -8 0 -4 16 -14 35 -21 19 -7 35 -16 35
-21 0 -5 13 -11 30 -15 17 -4 30 -11 30 -16 0 -5 5 -9 10 -9 6 0 45 -16 86
-35 41 -19 80 -35 87 -35 6 0 24 -6 39 -14 15 -8 41 -17 59 -21 19 -4 40 -11
49 -16 27 -14 198 -54 295 -70 33 -5 79 -14 103 -19 23 -6 72 -10 107 -10 73
0 70 -2 175 130 25 31 80 100 123 154 44 54 76 100 73 103 -3 3 -32 15 -63 25
-246 83 -514 249 -693 428 -115 116 -130 139 -130 197 l0 53 54 0 c35 0 58 -5
66 -15 7 -8 18 -15 26 -15 7 0 19 -6 26 -13 38 -37 447 -246 485 -247 4 -1 26
-9 48 -20 22 -11 45 -19 51 -20 7 0 25 -7 40 -15 16 -8 37 -15 46 -15 9 0 19
-4 22 -9 3 -5 22 -12 42 -16 20 -3 44 -10 53 -15 9 -5 57 -21 106 -35 50 -15
101 -30 115 -35 14 -5 41 -12 60 -15 19 -3 44 -10 55 -15 20 -9 38 -12 250
-51 342 -63 762 -83 980 -49 33 5 103 14 155 20 132 14 357 56 455 84 28 8 77
22 110 31 33 9 69 20 80 25 11 5 58 21 105 36 47 15 89 31 94 36 6 4 16 8 24
8 8 0 28 6 45 14 75 34 130 56 139 56 26 0 407 190 436 218 7 6 18 12 24 12 5
0 21 9 35 20 19 14 41 20 79 20 l54 0 0 -57 0 -58 -122 -118 c-68 -66 -130
-125 -138 -132 -34 -28 -120 -85 -129 -85 -5 0 -11 -4 -13 -8 -7 -18 -183
-111 -313 -166 -22 -9 -47 -21 -55 -25 -8 -5 -41 -16 -73 -25 -31 -9 -57 -21
-57 -25 0 -9 98 -136 164 -212 17 -20 53 -64 79 -98 l49 -61 59 0 c32 0 78 4
101 10 24 5 75 14 113 19 95 13 293 58 310 71 6 4 26 11 45 15 19 4 40 11 45
15 6 4 28 13 50 20 92 29 383 184 455 243 15 12 38 29 50 37 32 20 177 147
220 191 19 20 58 65 85 99 28 34 58 70 68 80 17 16 18 34 13 226 -2 115 -9
247 -15 294 -40 335 -47 382 -80 585 -26 153 -104 506 -123 555 -4 8 -9 29
-12 45 -9 45 -47 187 -57 210 -4 11 -17 54 -29 95 -12 41 -25 84 -30 95 -4 11
-20 58 -34 105 -15 47 -31 92 -35 100 -5 9 -12 30 -15 48 -4 17 -12 34 -17 37
-5 4 -9 13 -9 22 0 8 -6 29 -14 46 -24 59 -56 142 -56 150 0 5 -9 29 -21 55
-11 26 -27 63 -35 82 -25 58 -31 71 -73 163 -23 49 -41 92 -41 98 0 5 -4 9
-10 9 -5 0 -10 6 -10 13 0 22 -71 152 -93 170 -31 25 -266 181 -299 198 -15 8
-67 34 -115 59 -49 25 -89 48 -91 53 -2 4 -8 7 -13 7 -11 0 -90 33 -132 55
-16 8 -34 15 -40 15 -7 0 -24 6 -39 14 -15 8 -42 17 -60 21 -18 4 -37 11 -43
15 -5 4 -26 11 -45 15 -19 4 -41 11 -50 16 -24 14 -249 66 -323 76 -26 3 -50
10 -53 14 -3 5 -44 9 -91 9 -73 0 -84 -2 -74 -14 7 -8 30 -17 52 -21 21 -4 41
-10 44 -15 3 -4 27 -13 55 -20 28 -7 53 -16 56 -21 3 -5 13 -9 22 -9 9 0 30
-7 46 -15 15 -8 33 -15 38 -15 5 0 30 -9 56 -21 26 -11 56 -24 67 -29 11 -4
46 -20 77 -34 31 -14 62 -26 67 -26 6 0 11 -4 11 -10 0 -5 6 -10 13 -10 47 -1
411 -213 614 -359 18 -13 22 -26 23 -68 l0 -53 -52 0 c-43 0 -72 9 -153 49
-100 49 -189 90 -255 117 -19 8 -43 19 -52 24 -10 6 -23 10 -30 10 -7 1 -31 9
-53 20 -22 11 -48 19 -57 20 -9 0 -19 4 -22 9 -3 5 -30 15 -58 22 -29 6 -60
16 -68 20 -8 4 -49 18 -90 29 -41 12 -88 26 -105 31 -99 29 -149 41 -220 55
-44 9 -111 22 -150 30 -97 20 -259 43 -390 54 -60 5 -157 14 -215 20 -132 13
-215 13 -350 0 -58 -5 -163 -14 -235 -20 -253 -20 -658 -80 -735 -109 -14 -6
-41 -13 -60 -16 -19 -3 -46 -10 -60 -15 -14 -5 -59 -18 -100 -30 -105 -31
-279 -89 -317 -106 -17 -8 -36 -14 -42 -14 -6 0 -19 -4 -29 -10 -27 -15 -110
-50 -119 -50 -4 0 -79 -36 -167 -80 -133 -67 -166 -80 -207 -80 l-49 0 0 53
c0 42 4 56 21 67 12 8 43 31 69 50 131 96 311 205 460 281 25 13 201 95 262
123 31 14 62 26 68 26 5 0 18 4 28 10 35 19 111 50 124 50 8 0 18 4 24 9 5 4
32 14 59 21 28 7 55 16 60 19 6 3 39 16 75 28 l65 22 -46 0 c-25 1 -49 -2 -53
-6z m208 -1993 c6 -6 20 -10 32 -10 27 0 157 -66 198 -100 85 -72 124 -124
173 -235 15 -34 18 -71 18 -250 0 -226 -6 -266 -62 -380 -35 -73 -44 -87 -88
-136 -71 -80 -189 -159 -236 -159 -8 0 -21 -6 -28 -12 -9 -10 -60 -13 -186
-13 -126 0 -177 3 -187 13 -6 6 -19 12 -27 12 -17 0 -113 43 -133 59 -58 47
-138 126 -138 137 0 8 -4 14 -8 14 -10 0 -62 99 -62 118 0 6 -4 12 -9 12 -27
0 -57 259 -43 382 14 126 26 170 69 258 34 67 114 161 186 217 25 20 124 63
144 63 11 0 23 4 29 9 5 5 25 12 44 14 57 8 303 -2 314 -13z m2067 -13 c86
-30 143 -65 199 -119 54 -52 112 -138 131 -193 7 -22 16 -45 20 -50 32 -44 53
-354 30 -429 -75 -244 -133 -330 -286 -424 -27 -17 -63 -34 -80 -38 -16 -4
-36 -12 -44 -18 -9 -7 -74 -11 -180 -11 -177 1 -212 8 -320 64 -50 26 -191
164 -191 186 0 8 -4 15 -9 15 -10 0 -61 110 -61 132 0 8 -6 20 -12 26 -18 18
-18 428 -1 463 6 13 17 42 24 64 17 60 92 166 157 226 57 53 160 109 198 109
11 0 24 4 30 9 14 15 78 19 209 15 93 -3 135 -9 186 -27z"/>
</g>
</svg>
