<?xml version="1.0" standalone="no"?>
<!DOCTYPE svg PUBLIC "-//W3C//DTD SVG 20010904//EN"
 "http://www.w3.org/TR/2001/REC-SVG-20010904/DTD/svg10.dtd">
<svg version="1.0" xmlns="http://www.w3.org/2000/svg"
 width="300.000000pt" height="300.000000pt" viewBox="0 0 300.000000 300.000000"
 preserveAspectRatio="xMidYMid meet">

<g transform="translate(0.000000,300.000000) scale(0.100000,-0.100000)"
fill="#000000" stroke="none">
<path d="M1225 2925 c-16 -8 -38 -20 -47 -28 -21 -16 -48 -77 -48 -106 0 -11
-14 -31 -31 -43 -79 -58 -145 -179 -175 -322 -17 -80 -27 -95 -104 -144 -271
-173 -570 -507 -730 -816 -45 -87 -50 -129 -21 -191 61 -134 330 -218 461
-144 51 30 68 58 94 163 43 168 98 276 186 361 l41 40 -54 -81 c-76 -114 -98
-183 -104 -324 -6 -133 7 -202 60 -309 38 -80 179 -226 245 -255 23 -11 39
-23 35 -27 -4 -4 -69 -32 -143 -64 -86 -36 -145 -67 -162 -85 -90 -97 -40
-286 93 -352 117 -59 344 -74 494 -34 282 77 497 296 575 586 l20 75 -5 -95
c-7 -151 -64 -310 -150 -422 l-35 -47 43 -25 c184 -108 406 -79 551 74 135
142 139 289 8 335 -26 9 -66 24 -89 32 -55 19 -137 93 -184 165 l-36 57 22 48
c77 163 54 347 -60 498 -34 44 -35 47 -13 42 87 -21 174 -29 296 -25 170 6
227 25 306 101 82 81 101 130 101 257 0 120 -14 156 -88 237 -100 109 -231
121 -361 33 -207 -141 -402 -112 -605 89 -41 41 -70 76 -64 78 5 2 64 -17 131
-42 132 -49 147 -52 195 -31 41 16 240 249 235 273 -2 10 -53 47 -114 83 -94
55 -119 75 -160 129 -86 114 -218 186 -362 198 -51 4 -80 11 -86 20 -10 18
-84 53 -111 52 -11 0 -33 -6 -50 -14z"/>
</g>
</svg>
