<?xml version="1.0" standalone="no"?>
<!DOCTYPE svg PUBLIC "-//W3C//DTD SVG 20010904//EN"
 "http://www.w3.org/TR/2001/REC-SVG-20010904/DTD/svg10.dtd">
<svg version="1.0" xmlns="http://www.w3.org/2000/svg"
 width="1200.000000pt" height="1200.000000pt" viewBox="0 0 1200.000000 1200.000000"
 preserveAspectRatio="xMidYMid meet">
<metadata>
Created by potrace 1.16, written by Peter Selinger 2001-2019
</metadata>
<g transform="translate(0.000000,1200.000000) scale(0.100000,-0.100000)"
fill="#000000" stroke="none">
<path d="M756 11958 c3 -24 43 -473 90 -998 46 -525 111 -1256 144 -1625 33
-368 123 -1379 200 -2245 77 -866 160 -1800 185 -2075 24 -275 105 -1184 180
-2020 143 -1616 154 -1727 157 -1730 2 -1 962 -273 2134 -604 l2131 -603 2144
603 c1179 331 2145 603 2145 603 1 1 18 186 38 411 20 226 79 887 131 1470 52
583 133 1492 180 2020 118 1325 342 3836 485 5443 66 738 120 1354 120 1367
l0 25 -5235 0 -5235 0 6 -42z m8604 -2165 c0 -101 -28 -447 -64 -793 -19 -184
-37 -375 -41 -425 -3 -49 -9 -102 -11 -117 l-6 -28 -2525 0 -2526 0 5 -57 c3
-32 27 -313 54 -625 l49 -568 2412 0 2413 0 0 -74 c0 -40 -9 -140 -20 -222
-11 -82 -90 -948 -175 -1924 -144 -1655 -172 -1960 -178 -1966 -11 -12 -2706
-748 -2747 -751 -48 -4 -225 43 -1420 372 -751 207 -1368 380 -1371 383 -7 8
-170 2080 -169 2150 l0 42 709 0 708 0 6 -52 c3 -29 25 -267 48 -528 23 -261
42 -476 43 -477 1 -1 321 -88 710 -194 l709 -191 711 192 c391 106 712 193
713 194 4 3 154 1589 150 1592 -2 2 -1032 7 -2290 11 l-2286 6 -6 51 c-13 114
-316 3526 -330 3711 -8 110 -15 233 -15 273 l0 72 3370 0 3370 0 0 -57z"/>
</g>
</svg>
