<?xml version="1.0" standalone="no"?>
<!DOCTYPE svg PUBLIC "-//W3C//DTD SVG 20010904//EN"
 "http://www.w3.org/TR/2001/REC-SVG-20010904/DTD/svg10.dtd">
<svg version="1.0" xmlns="http://www.w3.org/2000/svg"
 width="920.000000pt" height="920.000000pt" viewBox="0 0 920.000000 920.000000"
 preserveAspectRatio="xMidYMid meet">
<metadata>
Created by potrace 1.16, written by Peter Selinger 2001-2019
</metadata>
<g transform="translate(0.000000,920.000000) scale(0.100000,-0.100000)"
fill="#000000" stroke="none">
<path d="M552 7351 c-146 -36 -288 -127 -385 -246 -55 -69 -129 -214 -149
-295 -20 -83 -19 -4629 1 -4710 66 -265 274 -476 541 -547 61 -17 283 -18
4000 -18 3748 0 3938 1 4005 18 266 68 474 276 542 544 17 64 18 209 18 2358
0 2573 7 2344 -75 2510 -95 192 -268 332 -476 385 -76 20 -120 20 -4013 19
-3745 0 -3940 -1 -4009 -18z m7995 -375 c73 -34 153 -113 186 -183 l22 -48 0
-2290 0 -2290 -29 -59 c-37 -76 -96 -135 -172 -172 l-59 -29 -3930 0 -3930 0
-67 33 c-79 39 -129 92 -172 181 l-31 66 -3 2220 c-2 1512 1 2242 8 2288 23
152 131 273 274 308 17 4 1788 6 3936 6 l3905 -2 62 -29z"/>
<path d="M1460 4450 l0 -1460 365 0 365 0 2 971 3 972 448 -596 c246 -328 452
-599 456 -602 5 -2 211 265 457 595 247 329 452 599 457 600 4 0 7 -437 7
-970 l0 -970 363 2 362 3 2 1458 2 1457 -368 0 -368 0 -177 -237 c-368 -497
-725 -975 -729 -979 -4 -4 -409 535 -792 1053 l-120 162 -367 1 -368 0 0
-1460z"/>
<path d="M6390 5180 l0 -730 -455 0 -455 0 633 -724 c347 -399 635 -725 639
-725 4 -1 257 286 564 637 307 350 591 675 633 722 l75 85 -452 3 -452 2 0
730 0 730 -365 0 -365 0 0 -730z"/>
</g>
</svg>
